<svg width="30" height="30" viewBox="0 0 30 30" fill="none" xmlns="http://www.w3.org/2000/svg">
<g clip-path="url(#clip0_480_2436)">
<path d="M3.75 7.5C3.75 6.83696 4.01339 6.20107 4.48223 5.73223C4.95107 5.26339 5.58696 5 6.25 5H23.75C24.413 5 25.0489 5.26339 25.5178 5.73223C25.9866 6.20107 26.25 6.83696 26.25 7.5V22.5C26.25 23.163 25.9866 23.7989 25.5178 24.2678C25.0489 24.7366 24.413 25 23.75 25H6.25C5.58696 25 4.95107 24.7366 4.48223 24.2678C4.01339 23.7989 3.75 23.163 3.75 22.5V7.5Z" stroke="black" stroke-width="1.5" stroke-linecap="round" stroke-linejoin="round"/>
<path d="M8.75 10H21.25" stroke="black" stroke-width="1.5" stroke-linecap="round" stroke-linejoin="round"/>
<path d="M8.75 15H21.25" stroke="black" stroke-width="1.5" stroke-linecap="round" stroke-linejoin="round"/>
<path d="M8.75 20H21.25" stroke="black" stroke-width="1.5" stroke-linecap="round" stroke-linejoin="round"/>
</g>
<defs>
<clipPath id="clip0_480_2436">
<rect width="30" height="30" fill="white"/>
</clipPath>
</defs>
</svg>
