<?xml version="1.0" encoding="UTF-8"?>
<svg width="175px" height="159px" viewBox="0 0 175 159" version="1.1" xmlns="http://www.w3.org/2000/svg" xmlns:xlink="http://www.w3.org/1999/xlink">
    <!-- Generator: Sketch 55.2 (78181) - https://sketchapp.com -->
    <title>Jewellery Box Icon-01</title>
    <desc>Created with Sketch.</desc>
    <g id="Assets" stroke="none" stroke-width="1" fill="none" fill-rule="evenodd" opacity="0.247233073">
        <g id="Jewellery-Box" transform="translate(-3.000000, -6.000000)" fill="#9B9B9B" fill-rule="nonzero">
            <g id="Jewellery-Box-Icon-01" transform="translate(3.000000, 6.000000)">
                <g id="Group" transform="translate(22.000000, 34.000000)">
                    <path d="M130.849425,98.6482234 C87.2831418,98.6482234 43.8172414,98.6482234 0.0501915709,98.6482234 C0.0501915709,98.1456853 0.0501915709,97.693401 0.0501915709,97.1908629 C0.0501915709,88.7984772 0.100383142,80.3558376 -2.84217094e-14,71.9634518 C-2.84217094e-14,70.7071066 0.702681992,69.8527919 1.5559387,68.8979695 C7.72950192,62.4152284 13.8528736,55.9324873 20.0766284,49.5 C20.8295019,48.6959391 20.9298851,47.9923858 20.6789272,47.0878173 C19.9260536,44.1730964 19.4241379,41.2081218 18.7716475,38.293401 C17.8180077,34.1725888 16.8643678,30.0015228 15.7601533,25.8807107 C14.3547893,20.6543147 12.7988506,15.4279188 11.343295,10.151269 C10.8413793,8.39238579 10.640613,6.53299492 9.83754789,4.82436548 C9.18505747,3.5177665 10.4900383,3.06548223 11.0923372,2.36192893 C12.397318,0.854314721 14.1038314,0.150761421 16.9145594,0.150761421 C49.6896552,0.251269036 82.5149425,0.201015228 115.290038,0.201015228 C116.645211,0.201015228 117.699234,0.251269036 118.502299,1.20609137 C119.154789,1.95989848 120.208812,2.56294416 120.961686,3.26649746 C121.262835,3.5177665 121.41341,3.97005076 121.363218,4.2715736 C119.054406,12.2619289 116.645211,20.2522843 114.436782,28.2928934 C113.382759,32.1624365 112.730268,36.0822335 111.877011,40.0020305 C111.324904,42.4142132 110.672414,44.8766497 110.22069,47.2888325 C110.120307,48.0426396 110.371264,48.9472081 110.973563,49.6005076 C115.440613,54.3243655 120.008046,58.9477157 124.525287,63.6715736 C126.53295,65.7822335 128.490421,67.9431472 130.447893,70.0538071 C130.698851,70.3553299 130.949808,70.7071066 130.949808,71.0588832 C130.949808,80.1045685 130.949808,89.1502538 130.949808,98.1959391 C131,98.3467005 130.949808,98.4472081 130.849425,98.6482234 Z M25.145977,12.8147208 C27.956705,24.4233503 30.767433,35.8309645 33.5781609,47.3390863 C38.6475096,47.3390863 43.4659004,47.3390863 48.2340996,47.3390863 C48.2340996,48.3441624 48.2340996,49.248731 48.2340996,50.2035533 C43.4157088,50.2035533 38.6977011,50.2035533 33.9796935,50.2035533 C33.0762452,50.2035533 32.5743295,50.4045685 32.0724138,50.9573604 C28.0570881,55.5304569 23.9413793,60.0532995 19.8758621,64.5761421 C18.3199234,66.2847716 16.7137931,67.9431472 15.0072797,69.8025381 C48.7862069,69.8025381 82.2137931,69.8025381 115.892337,69.8025381 C115.591188,69.4005076 115.34023,69.0989848 115.03908,68.7974619 C110.321073,63.6213198 105.552874,58.4451777 100.935249,53.2187817 C98.3252874,50.2538071 98.5260536,50.1532995 93.5570881,50.1532995 C89.8931034,50.1532995 86.1789272,50.1532995 82.464751,50.1532995 C82.464751,49.0979695 82.464751,48.193401 82.464751,47.1883249 C87.483908,47.1883249 92.402682,47.1883249 97.4720307,47.1883249 C100.282759,35.680203 103.093487,24.2725888 105.904215,12.7142132 C78.8007663,12.8147208 52.2494253,12.8147208 25.145977,12.8147208 Z" id="Shape"></path>
                    <g transform="translate(36.137931, 53.269036)" id="Path">
                        <path d="M0.150574713,8.4928934 C0.652490421,9.49796954 1.45555556,9.44771574 2.25862069,9.49796954 C3.76436782,9.59847716 5.1697318,9.14619289 6.57509579,8.79441624 C9.03448276,8.09086294 11.3934866,7.33705584 13.451341,5.72893401 C13.7022989,5.52791878 14.0034483,5.32690355 14.2544061,5.12588832 C14.7061303,4.67360406 15.0072797,4.17106599 14.856705,3.5177665 C15.6597701,4.2213198 15.910728,5.12588832 16.0613027,6.08071066 C16.1616858,6.83451777 15.910728,7.43756345 15.4088123,7.99035533 C14.3547893,9.04568528 13.1,9.74923858 11.7950192,10.3522843 C9.28544061,11.457868 6.7256705,12.3624365 3.9651341,12.4629442 C3.71417625,12.4629442 3.46321839,12.4629442 3.21226054,12.4629442 C1.2045977,12.4126904 -0.150574713,10.7040609 0.150574713,8.4928934 Z"></path>
                        <path d="M12.4475096,2.61319797 C11.9957854,2.66345178 11.343295,2.71370558 10.640613,2.8142132 C10.289272,2.86446701 10.0885057,2.76395939 9.98812261,2.41218274 C9.63678161,1.45736041 9.88773946,0.804060914 10.8915709,0.502538071 C12.0961686,0.150761421 13.3007663,0.35177665 14.4551724,0.703553299 C17.1655172,1.45736041 19.5747126,2.76395939 21.632567,4.67360406 C22.3854406,5.32690355 23.037931,6.08071066 23.2888889,7.0857868 C23.5398467,7.94010152 22.7869732,8.79441624 21.9337165,8.69390863 C21.8333333,8.69390863 21.6827586,8.59340102 21.5823755,8.4928934 C20.1770115,6.53299492 18.2195402,5.32690355 16.1114943,4.2715736 C15.910728,4.17106599 15.7099617,4.07055838 15.6095785,3.91979695 C14.6057471,2.8142132 14.0536398,2.56294416 12.4475096,2.61319797 Z"></path>
                        <path d="M13.5517241,9.79949239 C14.3547893,9.09593909 15.1076628,8.39238579 15.8605364,7.7893401 C15.9609195,7.68883249 16.2118774,7.73908629 16.3624521,7.83959391 C17.8180077,8.54314721 19.3739464,8.89492386 20.9800766,8.99543147 C21.4318008,9.04568528 21.9337165,8.99543147 22.3854406,8.89492386 C23.1383142,8.74416244 23.5398467,8.24162437 23.6904215,7.33705584 C23.9413793,9.69898477 22.1344828,11.7091371 20.0264368,11.7091371 C17.7176245,11.7091371 15.6095785,10.9050761 13.5517241,9.79949239 Z"></path>
                        <path d="M8.88390805,6.63350254 C6.92643678,7.23654822 5.01915709,8.09086294 3.16206897,9.14619289 C2.4091954,9.59847716 1.50574713,9.29695431 0.702681992,8.89492386 C0.55210728,8.84467005 0.501915709,8.44263959 0.55210728,8.24162437 C0.602298851,7.99035533 0.803065134,7.68883249 1.00383142,7.53807107 C2.96130268,5.72893401 5.32030651,4.77411168 7.67931034,3.97005076 C8.13103448,4.9248731 8.48237548,5.72893401 8.88390805,6.63350254 Z"></path>
                        <path d="M10.8915709,0.201015228 C9.53639847,0.904568528 9.33563218,1.70862944 10.0885057,2.96497462 C10.4398467,3.5177665 10.8915709,4.02030457 11.343295,4.52284264 C11.7950192,4.9751269 12.2969349,5.37715736 12.9494253,5.87969543 C12.045977,6.3822335 11.2429119,6.83451777 10.3896552,7.28680203 C10.289272,7.33705584 10.0885057,7.28680203 9.98812261,7.18629442 C9.03448276,6.23147208 8.08084291,5.27664975 8.23141762,3.81928934 C8.38199234,2.26142132 9.08467433,1.00507614 10.5402299,0.201015228 C10.5904215,0.150761421 10.6908046,0.150761421 10.7911877,0.150761421 C10.7409962,0.150761421 10.7911877,0.201015228 10.8915709,0.201015228 Z"></path>
                        <path d="M10.640613,3.31675127 C11.7950192,3.06548223 12.9494253,2.91472081 14.1038314,3.31675127 C14.6559387,3.5177665 14.8065134,3.91979695 14.505364,4.37208122 C14.2042146,4.82436548 13.7524904,5.17614213 13.3007663,5.52791878 C13.2003831,5.57817259 12.9996169,5.6284264 12.8992337,5.52791878 C12.0961686,4.87461929 11.2931034,4.17106599 10.5402299,3.46751269 C10.5904215,3.41725888 10.640613,3.36700508 10.640613,3.31675127 Z"></path>
                    </g>
                    <g transform="translate(56.716475, 41.208122)" id="Path">
                        <path d="M5.82222222,5.07563452 C2.45938697,7.03553299 1.10421456,9.64873096 1.90727969,12.513198 C2.66015326,15.1766497 5.11954023,17.1365482 7.82988506,17.1365482 C10.640613,17.1365482 13.1501916,15.1766497 13.8528736,12.513198 C14.6559387,9.59847716 13.3007663,6.98527919 9.98812261,5.02538071 C10.289272,4.62335025 10.5402299,4.2213198 10.7911877,3.81928934 C14.154023,5.07563452 16.1616858,8.74416244 15.4590038,12.4126904 C14.7563218,16.0812183 11.4436782,18.7446701 7.72950192,18.6944162 C4.01532567,18.6441624 0.752873563,15.8299492 0.200766284,12.2116751 C-0.351340996,8.59340102 1.65632184,5.02538071 4.91877395,3.86954315 C5.21992337,4.2715736 5.5210728,4.62335025 5.82222222,5.07563452 Z"></path>
                        <path d="M7.9302682,6.78426396 C6.7256705,5.07563452 5.57126437,3.46751269 4.41685824,1.80913706 C4.86858238,0.804060914 5.5210728,0.201015228 6.77586207,0.35177665 C7.52873563,0.452284264 8.2816092,0.452284264 9.03448276,0.35177665 C10.2390805,0.201015228 10.9417625,0.753807107 11.3934866,1.80913706 C10.2390805,3.46751269 9.08467433,5.07563452 7.9302682,6.78426396 Z"></path>
                    </g>
                    <path d="M77.2448276,35.177665 C77.1444444,35.2279188 77.0440613,35.2781726 76.9436782,35.2781726 C76.9436782,35.177665 76.8934866,35.0771574 76.9436782,35.0771574 C77.0440613,34.9766497 77.1444444,35.0269036 77.2448276,35.177665 Z" id="Path"></path>
                    <path d="M73.8819923,59.4 C73.6812261,59.2492386 73.6812261,59.0984772 73.8318008,58.9979695 C73.8318008,58.9979695 73.9321839,58.9979695 73.9321839,58.9979695 C73.9321839,59.148731 73.9321839,59.2492386 73.8819923,59.4 Z" id="Path"></path>
                    <path d="M91.2482759,44.6253807 C91.2482759,44.7761421 91.1478927,44.8263959 91.0475096,44.8263959 C90.9471264,44.8263959 90.8467433,44.7258883 90.8467433,44.6253807 C90.8467433,44.5248731 90.9471264,44.4243655 91.0475096,44.4243655 C91.1478927,44.4243655 91.2482759,44.5248731 91.2482759,44.6253807 Z" id="Path"></path>
                    <path d="M74.735249,58.6964467 C74.735249,58.8472081 74.6348659,58.9477157 74.4842912,58.9477157 C74.3337165,58.9477157 74.2835249,58.8472081 74.2835249,58.7467005 C74.2835249,58.6461929 74.383908,58.4954315 74.5344828,58.4954315 C74.6348659,58.4954315 74.735249,58.5959391 74.735249,58.6964467 Z" id="Path"></path>
                    <path d="M75.0363985,58.0431472 C75.1869732,58.0431472 75.2371648,58.1436548 75.2371648,58.2944162 C75.2371648,58.3949239 75.1367816,58.4954315 74.9862069,58.4954315 C74.8858238,58.4954315 74.7854406,58.3949239 74.7854406,58.2441624 C74.8356322,58.093401 74.9360153,58.0431472 75.0363985,58.0431472 Z" id="Path"></path>
                    <path d="M76.5421456,57.1385787 C76.4417625,57.1385787 76.3413793,57.0380711 76.3413793,56.9375635 C76.3413793,56.786802 76.4417625,56.6862944 76.5421456,56.6862944 C76.6425287,56.6862944 76.7931034,56.786802 76.7931034,56.8873096 C76.7931034,57.0380711 76.6927203,57.1385787 76.5421456,57.1385787 Z" id="Path"></path>
                    <path d="M77.897318,55.9827411 C77.897318,56.1335025 77.7969349,56.1837563 77.6965517,56.1837563 C77.5961686,56.1837563 77.4957854,56.0832487 77.4957854,55.9827411 C77.4957854,55.8822335 77.5961686,55.7817259 77.6965517,55.7817259 C77.8471264,55.7817259 77.897318,55.8822335 77.897318,55.9827411 Z" id="Path"></path>
                    <path d="M78.8007663,55.228934 C78.8007663,55.3796954 78.7003831,55.480203 78.6,55.480203 C78.4494253,55.480203 78.3490421,55.3796954 78.3490421,55.2791878 C78.3490421,55.1284264 78.3992337,55.0781726 78.5498084,55.0781726 C78.7003831,55.0279188 78.8007663,55.0781726 78.8007663,55.228934 Z" id="Path"></path>
                    <path d="M83.0168582,57.1385787 C81.8624521,54.2238579 80.7582375,51.3593909 79.654023,48.4446701 C79.5034483,48.0426396 79.302682,47.5903553 79.1521073,47.1883249 C80.708046,46.635533 81.6114943,45.580203 81.5613027,43.9218274 C81.5111111,42.1126904 80.5072797,41.1076142 78.8007663,40.6050761 C78.8007663,40.2030457 78.8007663,39.8010152 78.8007663,39.4492386 C78.8007663,38.7456853 79.0517241,38.1426396 79.5536398,37.6401015 C79.9551724,37.2380711 80.356705,36.8360406 80.7582375,36.4340102 C81.059387,36.1324873 81.3103448,35.7304569 81.410728,35.3284264 C81.5613027,34.7756345 81.5613027,34.2228426 81.5111111,33.6700508 C81.4609195,33.2177665 81.3103448,32.7654822 81.059387,32.4137056 C80.3065134,31.4086294 79.0015326,31.006599 77.8471264,31.5091371 C76.7931034,31.9614213 76.1908046,32.9162437 76.1908046,34.0720812 L76.140613,34.0720812 C76.140613,34.0720812 76.0904215,34.4238579 76.2409962,34.6248731 C76.3413793,34.8258883 76.5923372,34.9263959 76.7429119,34.8761421 C76.7429119,34.8761421 76.7429119,34.8761421 76.7429119,34.8258883 C77.0942529,34.8761421 77.2950192,34.7253807 77.2950192,34.3736041 C77.2950192,34.2228426 77.2950192,34.122335 77.2950192,33.9715736 C77.3452107,33.1675127 77.897318,32.564467 78.7003831,32.4639594 C79.4532567,32.3634518 80.1559387,32.8659898 80.356705,33.619797 C80.4570881,33.9213198 80.4068966,34.2730964 80.4068966,34.6248731 C80.4068966,35.0269036 80.2563218,35.428934 79.9551724,35.680203 C79.5536398,36.0822335 79.1521073,36.484264 78.7003831,36.9365482 C78.1984674,37.4893401 77.8471264,38.0923858 77.7467433,38.8461929 C77.6965517,39.3989848 77.6965517,39.9517766 77.6965517,40.5045685 C77.6965517,40.5548223 77.6965517,40.6553299 77.6965517,40.7055838 C76.0904215,41.0071066 75.0363985,42.3137056 74.9360153,43.771066 C74.8858238,44.4243655 75.0363985,45.077665 75.3375479,45.6304569 C75.789272,46.4345178 76.491954,46.9873096 77.3452107,47.2385787 C77.3452107,47.2888325 77.2950192,47.3390863 77.2950192,47.3893401 C76.1908046,50.1532995 75.1367816,52.9675127 74.032567,55.7314721 C73.8318008,56.284264 73.5808429,56.8873096 73.3800766,57.4401015 C73.2295019,57.7918782 73.2796935,58.093401 73.3800766,58.3446701 L73.3800766,58.3446701 L73.4302682,58.3949239 C73.4804598,58.4954315 73.5306513,58.5959391 73.5808429,58.6964467 L73.8819923,59.1989848 C73.8819923,59.2492386 73.9321839,59.2492386 73.9321839,59.2492386 C73.9823755,59.3497462 74.032567,59.4502538 74.1329502,59.5507614 L76.3413793,63.4203046 L76.3413793,63.4203046 C76.7931034,64.1741117 77.194636,64.9279188 77.6463602,65.6817259 C77.9475096,66.184264 78.6501916,66.2345178 78.951341,65.6817259 C80.2563218,63.4203046 81.5613027,61.1086294 82.8662835,58.8472081 C82.9666667,58.6461929 83.1172414,58.4451777 83.167433,58.2441624 C83.2678161,57.7918782 83.167433,57.4903553 83.0168582,57.1385787 Z M78.248659,45.6807107 C77.4455939,45.7812183 76.491954,45.0274112 76.491954,43.9218274 C76.491954,42.9670051 77.2950192,42.1629442 78.248659,42.1629442 C79.2022989,42.1629442 80.005364,42.9670051 80.005364,43.9218274 C80.0555556,44.9269036 79.1521073,45.7309645 78.248659,45.6807107 Z" id="Shape"></path>
                    <path d="M94.862069,57.3395939 C94.6613027,56.786802 94.4103448,56.2340102 94.2095785,55.6812183 C93.3061303,53.3192893 92.402682,50.9573604 91.4490421,48.6456853 C91.2482759,48.1431472 91.0977011,47.6908629 90.8969349,47.1883249 C92.5030651,46.5852792 93.4065134,45.4796954 93.3563218,43.7208122 C93.3061303,42.464467 92.402682,41.0071066 90.5957854,40.6553299 C90.5957854,40.2532995 90.5957854,39.9015228 90.5957854,39.4994924 C90.5957854,38.4441624 90.2444444,37.5898477 89.4915709,36.8360406 C89.0900383,36.4340102 88.6885057,36.0319797 88.2869732,35.6299492 C88.0862069,35.428934 87.9356322,35.1274112 87.8854406,34.8258883 C87.835249,34.5243655 87.835249,34.2228426 87.835249,33.9213198 C87.835249,33.1172589 88.4375479,32.5142132 89.240613,32.4137056 C89.943295,32.313198 90.6961686,32.815736 90.8467433,33.5695431 C90.8969349,33.8208122 90.8969349,34.122335 90.8969349,34.3736041 C90.8969349,34.6751269 91.1478927,34.8761421 91.4490421,34.8761421 C91.7501916,34.8761421 92.0011494,34.6751269 92.0011494,34.3736041 C92.0011494,34.0720812 92.0011494,33.7705584 91.9509579,33.4690355 C91.8003831,32.313198 90.7965517,31.3583756 89.591954,31.257868 C88.3371648,31.1573604 87.2329502,31.8609137 86.7812261,33.0167513 C86.5804598,33.5192893 86.6306513,34.0720812 86.6306513,34.6248731 C86.6808429,35.3284264 86.9318008,35.9314721 87.4337165,36.4340102 C87.835249,36.8360406 88.2367816,37.2380711 88.6383142,37.6401015 C88.9394636,37.9416244 89.1402299,38.293401 89.240613,38.6954315 C89.4413793,39.348731 89.2908046,40.0020305 89.3409962,40.6050761 C88.0360153,40.8563452 87.2329502,41.7106599 86.8314176,42.5649746 C86.7812261,42.5649746 86.7812261,42.5649746 86.7812261,42.5649746 C86.7812261,42.5649746 86.6306513,42.8664975 86.5804598,43.3690355 C86.5804598,43.519797 86.5302682,43.6705584 86.5302682,43.771066 C86.5302682,43.9720812 86.5302682,44.1730964 86.5804598,44.4243655 C86.5804598,44.4243655 86.5804598,44.4243655 86.5804598,44.4243655 C86.5804598,44.4243655 86.5804598,44.4243655 86.5804598,44.4243655 C86.6306513,44.7761421 86.7310345,45.077665 86.9318008,45.4294416 C87.3333333,46.2335025 88.0360153,46.7862944 88.9896552,47.0878173 C88.9896552,47.1380711 88.9896552,47.1380711 88.9394636,47.1883249 C88.4877395,48.3944162 87.9858238,49.6005076 87.5340996,50.8568528 C86.7310345,52.9675127 85.8777778,55.0781726 85.0747126,57.1888325 C85.0245211,57.3395939 84.9743295,57.4903553 84.9241379,57.6411168 C84.8739464,57.9928934 85.0245211,58.2944162 85.1750958,58.5959391 C86.5302682,60.9076142 87.8854406,63.2695431 89.1904215,65.5812183 C89.4915709,66.0837563 90.1942529,66.0837563 90.4954023,65.5309645 C91.7,63.4705584 92.8544061,61.4101523 94.0590038,59.2994924 C94.1091954,59.2492386 94.0590038,59.1989848 94.1091954,59.148731 C94.1091954,59.0984772 94.1091954,58.9979695 94.159387,58.9477157 C94.2095785,58.8472081 94.3099617,58.7969543 94.4103448,58.6964467 C94.3601533,58.5959391 94.2597701,58.4954315 94.159387,58.3949239 C94.3601533,58.2441624 94.3601533,58.5456853 94.4605364,58.5456853 C94.9624521,58.2441624 95.0628352,57.842132 94.862069,57.3395939 Z M89.9934866,45.6807107 C89.1402299,45.7812183 88.2367816,44.9269036 88.2367816,43.9218274 C88.2367816,42.9670051 89.0398467,42.213198 89.9934866,42.213198 C90.9471264,42.213198 91.7501916,43.0172589 91.7501916,43.9720812 C91.7501916,44.9771574 90.8467433,45.7309645 89.9934866,45.6807107 Z" id="Shape"></path>
                </g>
                <polygon id="Path" points="28.5 51 29.8846154 53.9653179 33 54.433526 30.7252747 56.7745665 31.2692308 60 28.5 58.4393064 25.7307692 60 26.2747253 56.7745665 24 54.433526 27.1153846 53.9653179"></polygon>
                <polygon id="Path" points="84.4744186 15 86.1627907 18.2843137 90 18.8235294 87.2372093 21.372549 87.9023256 25 84.4744186 23.2843137 81.0976744 25 81.7627907 21.372549 79 18.8235294 82.7860465 18.2843137"></polygon>
                <polygon id="Path" points="76.0248447 131 77.2670807 133.666667 80 134.084967 78.0124224 136.124183 78.5093168 139 76.0248447 137.640523 73.5403727 139 74.0372671 136.124183 72 134.084967 74.7826087 133.666667"></polygon>
                <polygon id="Path" points="166.5 137 169.130952 142.25 175 143.1 170.75 147.2 171.761905 153 166.5 150.25 161.238095 153 162.25 147.2 158 143.1 163.869048 142.25"></polygon>
                <polygon id="Path" points="47.9747292 0 50.1480144 4.25095057 55 4.94296578 51.5126354 8.30418251 52.3212996 13 47.9747292 10.7756654 43.6787004 13 44.4873646 8.30418251 41 4.94296578 45.8519856 4.25095057"></polygon>
                <polygon id="Path" points="149.975369 65 151.551724 68.3160622 155 68.8341969 152.487685 71.373057 153.078818 75 149.975369 73.2901554 146.921182 75 147.512315 71.373057 145 68.8341969 148.448276 68.3160622"></polygon>
                <polygon id="Path" points="19.0246305 87 20.5517241 90.28125 24 90.8020833 21.5369458 93.40625 22.1280788 97 19.0246305 95.28125 15.9211823 97 16.5123153 93.40625 14 90.8020833 17.4975369 90.28125"></polygon>
                <polygon id="Path" points="149.975369 23 151.551724 26.28125 155 26.8020833 152.487685 29.40625 153.078818 33 149.975369 31.28125 146.921182 33 147.512315 29.40625 145 26.8020833 148.448276 26.28125"></polygon>
                <polygon id="Path" points="47.9753695 149 49.5517241 152.316062 53 152.834197 50.4876847 155.373057 51.0788177 159 47.9753695 157.290155 44.9211823 159 45.5123153 155.373057 43 152.834197 46.4482759 152.316062"></polygon>
                <polygon id="Path" points="4.02580645 129 5.26451613 131.285714 8 131.666667 6.03870968 133.47619 6.50322581 136 4.02580645 134.809524 1.5483871 136 2.01290323 133.47619 0 131.666667 2.78709677 131.285714"></polygon>
                <polygon id="Path" points="128.025806 136 129.264516 138.317568 132 138.695946 129.987097 140.445946 130.503226 143 128.025806 141.77027 125.548387 143 126.012903 140.445946 124 138.695946 126.787097 138.317568"></polygon>
                <polygon id="Path" points="123 22 124.246753 24.3333333 127 24.6666667 125.025974 26.4761905 125.493506 29 123 27.8095238 120.506494 29 120.974026 26.4761905 119 24.6666667 121.753247 24.3333333"></polygon>
                <circle id="Oval" cx="34.5" cy="77.5" r="1.5"></circle>
                <circle id="Oval" cx="54.5" cy="139.5" r="1.5"></circle>
                <circle id="Oval" cx="133.5" cy="13.5" r="1.5"></circle>
                <circle id="Oval" cx="143.5" cy="80.5" r="1.5"></circle>
            </g>
        </g>
    </g>
</svg>