<svg width="226" height="63" viewBox="0 0 226 63" fill="none" xmlns="http://www.w3.org/2000/svg">
<path d="M27.8733 49.4122C28.2998 49.7819 28.8258 50.0946 29.4513 50.3505C30.0769 50.6349 30.7024 50.777 31.3279 50.777C31.9819 50.777 32.6074 50.5211 33.2045 50.0093C33.8016 49.4975 34.1002 48.6161 34.1002 47.365V16.8276H41.8625V48.9857C41.8625 50.4074 41.6066 51.6158 41.0948 52.611C40.583 53.6346 39.8722 54.4449 38.9623 55.042C38.0524 55.6676 37.0004 56.1225 35.8062 56.4068C34.612 56.7196 33.3609 56.876 32.053 56.876C30.9441 56.876 29.8778 56.748 28.8542 56.4921C27.8306 56.2362 26.9066 55.9235 26.082 55.5538C25.2574 55.2126 24.5466 54.843 23.9495 54.4449L27.8733 49.4122ZM42.5909 27.0636H49.3296L53.424 37.129L59.0538 25.5709L64.8115 37.129L68.9059 27.0636H75.6446L65.5366 47.9195L59.0538 36.2334L52.6989 47.9195L42.5909 27.0636ZM85.0743 47.1091C82.7996 47.1091 80.8235 46.6968 79.1459 45.8723C77.4968 45.0193 76.2173 43.8251 75.3074 42.2897C74.3976 40.7543 73.9426 38.9488 73.9426 36.8731C73.9426 34.769 74.3833 32.9493 75.2648 31.4139C76.1462 29.8785 77.4115 28.6985 79.0606 27.874C80.7382 27.0494 82.7143 26.6371 84.989 26.6371C87.2636 26.6371 89.1829 27.0352 90.7467 27.8313C92.3106 28.599 93.5048 29.7221 94.3293 31.2007C95.1539 32.6792 95.5662 34.4705 95.5662 36.5746C95.5662 36.8873 95.5662 37.2001 95.5662 37.5129C95.5662 37.7972 95.5377 38.0389 95.4809 38.2379H77.5679V34.6553H89.6805L88.1451 36.6172C88.2872 36.4182 88.401 36.1765 88.4863 35.8922C88.6 35.5794 88.6569 35.3235 88.6569 35.1245C88.6569 34.2715 88.5005 33.5322 88.1877 32.9067C87.875 32.2811 87.4342 31.7978 86.8656 31.4566C86.2969 31.1154 85.6287 30.9448 84.861 30.9448C83.8943 30.9448 83.0839 31.158 82.43 31.5845C81.776 32.011 81.2784 32.665 80.9372 33.5464C80.6245 34.3994 80.4539 35.4799 80.4254 36.7878C80.4254 37.982 80.596 39.0056 80.9372 39.8586C81.2784 40.7116 81.7902 41.3656 82.4726 41.8205C83.155 42.247 83.9938 42.4603 84.989 42.4603C86.1263 42.4603 87.093 42.247 87.8892 41.8205C88.7137 41.394 89.3677 40.7543 89.8511 39.9013L95.6088 41.3087C94.5852 43.2422 93.192 44.6923 91.4291 45.659C89.6947 46.6258 87.5764 47.1091 85.0743 47.1091ZM97.4105 13.4156H103.893V46.6826H97.4105V13.4156ZM107.115 43.7824C107.115 42.702 107.499 41.7779 108.266 41.0102C109.034 40.2425 109.986 39.8586 111.124 39.8586C112.318 39.8586 113.285 40.2425 114.024 41.0102C114.763 41.7779 115.133 42.702 115.133 43.7824C115.133 44.8629 114.763 45.787 114.024 46.5547C113.285 47.3224 112.318 47.7062 111.124 47.7062C109.986 47.7062 109.034 47.3224 108.266 46.5547C107.499 45.787 107.115 44.8629 107.115 43.7824ZM122.309 36.1907C122.906 37.2712 123.575 38.2095 124.314 39.0056C125.082 39.8017 125.906 40.4131 126.788 40.8396C127.698 41.2661 128.65 41.4793 129.645 41.4793C130.697 41.4793 131.564 41.2234 132.247 40.7116C132.929 40.1714 133.27 39.4463 133.27 38.5365C133.27 37.7688 133.071 37.1574 132.673 36.7025C132.275 36.2191 131.636 35.7642 130.754 35.3377C129.873 34.9112 128.707 34.4278 127.257 33.8876C126.546 33.6317 125.721 33.2763 124.783 32.8214C123.873 32.3664 123.006 31.7835 122.181 31.0727C121.357 30.3334 120.674 29.452 120.134 28.4284C119.594 27.3764 119.324 26.1111 119.324 24.6326C119.324 22.8697 119.779 21.3485 120.689 20.069C121.627 18.7895 122.878 17.8228 124.442 17.1688C126.034 16.4864 127.797 16.1452 129.73 16.1452C131.721 16.1452 133.441 16.4722 134.891 17.1262C136.37 17.7801 137.592 18.6047 138.559 19.5999C139.526 20.595 140.265 21.6044 140.777 22.628L135.275 25.6988C134.848 24.988 134.351 24.3767 133.782 23.8649C133.242 23.3246 132.631 22.9123 131.948 22.628C131.294 22.3152 130.583 22.1589 129.816 22.1589C128.792 22.1589 128.01 22.3863 127.47 22.8413C126.93 23.2678 126.66 23.808 126.66 24.462C126.66 25.1444 126.916 25.7415 127.427 26.2533C127.968 26.7651 128.721 27.2342 129.688 27.6607C130.683 28.0872 131.877 28.5421 133.27 29.0255C134.322 29.4236 135.303 29.8927 136.213 30.433C137.123 30.9448 137.919 31.5703 138.602 32.3096C139.313 33.0488 139.867 33.9018 140.265 34.8686C140.663 35.8353 140.862 36.9442 140.862 38.1953C140.862 39.7022 140.549 41.0528 139.924 42.247C139.327 43.4128 138.502 44.3937 137.45 45.1899C136.427 45.986 135.247 46.5831 133.91 46.9812C132.602 47.4077 131.252 47.6209 129.858 47.6209C127.925 47.6209 126.119 47.2797 124.442 46.5973C122.793 45.8865 121.357 44.934 120.134 43.7398C118.912 42.5456 117.959 41.2376 117.277 39.816L122.309 36.1907ZM140.606 27.0636H153.742V32.3949H140.606V27.0636ZM144.061 20.2396H150.245V46.6826H144.061V20.2396ZM153.203 36.8731C153.203 34.7975 153.687 32.992 154.653 31.4566C155.62 29.9212 156.957 28.727 158.663 27.874C160.369 27.021 162.288 26.5945 164.42 26.5945C166.553 26.5945 168.458 27.021 170.135 27.874C171.841 28.727 173.178 29.9212 174.144 31.4566C175.14 32.992 175.637 34.7975 175.637 36.8731C175.637 38.9203 175.14 40.7116 174.144 42.247C173.178 43.7824 171.841 44.9766 170.135 45.8296C168.458 46.6826 166.553 47.1091 164.42 47.1091C162.288 47.1091 160.369 46.6826 158.663 45.8296C156.957 44.9766 155.62 43.7824 154.653 42.247C153.687 40.7116 153.203 38.9203 153.203 36.8731ZM159.814 36.8731C159.814 37.8967 160.027 38.7781 160.454 39.5174C160.88 40.2282 161.435 40.7827 162.117 41.1808C162.8 41.5788 163.567 41.7779 164.42 41.7779C165.245 41.7779 165.998 41.5788 166.681 41.1808C167.392 40.7827 167.946 40.2282 168.344 39.5174C168.771 38.7781 168.984 37.8967 168.984 36.8731C168.984 35.8495 168.771 34.9681 168.344 34.2288C167.946 33.4895 167.392 32.9209 166.681 32.5228C165.998 32.1247 165.245 31.9257 164.42 31.9257C163.567 31.9257 162.8 32.1247 162.117 32.5228C161.435 32.9209 160.88 33.4895 160.454 34.2288C160.027 34.9681 159.814 35.8495 159.814 36.8731ZM183.734 27.0636V46.6826H177.379V27.0636H183.734ZM189.407 33.717C189.065 33.3758 188.696 33.1057 188.298 32.9067C187.928 32.7076 187.459 32.6081 186.89 32.6081C186.265 32.6081 185.71 32.7787 185.227 33.1199C184.743 33.4611 184.374 33.9587 184.118 34.6127C183.862 35.2666 183.734 36.0628 183.734 37.0011L182.199 34.7406C182.199 33.1768 182.497 31.7835 183.094 30.5609C183.72 29.3383 184.53 28.3715 185.525 27.6607C186.521 26.9499 187.558 26.5945 188.639 26.5945C189.35 26.5945 190.032 26.7366 190.686 27.021C191.34 27.3053 191.838 27.7034 192.179 28.2152L189.407 33.717ZM202.137 47.1091C199.862 47.1091 197.886 46.6968 196.209 45.8723C194.559 45.0193 193.28 43.8251 192.37 42.2897C191.46 40.7543 191.005 38.9488 191.005 36.8731C191.005 34.769 191.446 32.9493 192.327 31.4139C193.209 29.8785 194.474 28.6985 196.123 27.874C197.801 27.0494 199.777 26.6371 202.052 26.6371C204.326 26.6371 206.245 27.0352 207.809 27.8313C209.373 28.599 210.567 29.7221 211.392 31.2007C212.216 32.6792 212.629 34.4705 212.629 36.5746C212.629 36.8873 212.629 37.2001 212.629 37.5129C212.629 37.7972 212.6 38.0389 212.543 38.2379H194.63V34.6553H206.743L205.208 36.6172C205.35 36.4182 205.464 36.1765 205.549 35.8922C205.663 35.5794 205.719 35.3235 205.719 35.1245C205.719 34.2715 205.563 33.5322 205.25 32.9067C204.938 32.2811 204.497 31.7978 203.928 31.4566C203.359 31.1154 202.691 30.9448 201.924 30.9448C200.957 30.9448 200.147 31.158 199.493 31.5845C198.839 32.011 198.341 32.665 198 33.5464C197.687 34.3994 197.516 35.4799 197.488 36.7878C197.488 37.982 197.659 39.0056 198 39.8586C198.341 40.7116 198.853 41.3656 199.535 41.8205C200.218 42.247 201.056 42.4603 202.052 42.4603C203.189 42.4603 204.156 42.247 204.952 41.8205C205.776 41.394 206.43 40.7543 206.914 39.9013L212.671 41.3087C211.648 43.2422 210.255 44.6923 208.492 45.659C206.757 46.6258 204.639 47.1091 202.137 47.1091Z" fill="white"/>
<path d="M214.814 43.7824C214.814 42.702 215.198 41.7779 215.966 41.0102C216.733 40.2425 217.686 39.8586 218.823 39.8586C220.018 39.8586 220.984 40.2425 221.724 41.0102C222.463 41.7779 222.832 42.702 222.832 43.7824C222.832 44.8629 222.463 45.787 221.724 46.5547C220.984 47.3224 220.018 47.7062 218.823 47.7062C217.686 47.7062 216.733 47.3224 215.966 46.5547C215.198 45.787 214.814 44.8629 214.814 43.7824Z" fill="#D9121F"/>
<path d="M60.2752 49.1846H61.1739L63.4662 54.8889L65.7537 49.1846H66.6571L63.8122 56.1816H63.1106L60.2752 49.1846ZM59.9821 49.1846H60.775L60.9048 53.452V56.1816H59.9821V49.1846ZM66.1526 49.1846H66.9455V56.1816H66.0228V53.452L66.1526 49.1846ZM72.6761 49.1846H73.5988V53.9182C73.5988 54.4436 73.4819 54.8809 73.248 55.2301C73.0141 55.5793 72.7034 55.842 72.3157 56.0182C71.9313 56.1913 71.5132 56.2778 71.0614 56.2778C70.5873 56.2778 70.158 56.1913 69.7735 56.0182C69.3923 55.842 69.0895 55.5793 68.8653 55.2301C68.6442 54.8809 68.5337 54.4436 68.5337 53.9182V49.1846H69.4515V53.9182C69.4515 54.2834 69.5188 54.5846 69.6534 54.8216C69.7879 55.0587 69.9754 55.2349 70.2156 55.3503C70.4591 55.4656 70.7411 55.5233 71.0614 55.5233C71.385 55.5233 71.667 55.4656 71.9072 55.3503C72.1507 55.2349 72.3397 55.0587 72.4743 54.8216C72.6089 54.5846 72.6761 54.2834 72.6761 53.9182V49.1846ZM79.3968 55.4272V56.1816H75.8982V55.4272H79.3968ZM76.0809 49.1846V56.1816H75.1534V49.1846H76.0809ZM81.8163 49.1846V56.1816H80.9032V49.1846H81.8163ZM84.0654 49.1846V49.9439H78.659V49.1846H84.0654ZM86.1966 49.1846V56.1816H85.2691V49.1846H86.1966ZM90.5624 53.4376H88.693V52.6831H90.5624C90.9245 52.6831 91.2176 52.6254 91.4419 52.5101C91.6661 52.3948 91.8295 52.2346 91.9321 52.0295C92.0378 51.8245 92.0906 51.5906 92.0906 51.3279C92.0906 51.0876 92.0378 50.8618 91.9321 50.6503C91.8295 50.4389 91.6661 50.2691 91.4419 50.1409C91.2176 50.0096 90.9245 49.9439 90.5624 49.9439H88.9093V56.1816H87.9818V49.1846H90.5624C91.0911 49.1846 91.538 49.2759 91.9032 49.4585C92.2685 49.6411 92.5456 49.8942 92.7346 50.2178C92.9236 50.5382 93.0181 50.905 93.0181 51.3183C93.0181 51.7668 92.9236 52.1497 92.7346 52.4669C92.5456 52.784 92.2685 53.0259 91.9032 53.1925C91.538 53.3559 91.0911 53.4376 90.5624 53.4376ZM98.2923 49.1846H99.2149V53.9182C99.2149 54.4436 99.098 54.8809 98.8641 55.2301C98.6303 55.5793 98.3195 55.842 97.9318 56.0182C97.5474 56.1913 97.1293 56.2778 96.6776 56.2778C96.2034 56.2778 95.7741 56.1913 95.3896 56.0182C95.0084 55.842 94.7056 55.5793 94.4814 55.2301C94.2603 54.8809 94.1498 54.4436 94.1498 53.9182V49.1846H95.0677V53.9182C95.0677 54.2834 95.1349 54.5846 95.2695 54.8216C95.4041 55.0587 95.5915 55.2349 95.8318 55.3503C96.0752 55.4656 96.3572 55.5233 96.6776 55.5233C97.0011 55.5233 97.2831 55.4656 97.5234 55.3503C97.7668 55.2349 97.9559 55.0587 98.0904 54.8216C98.225 54.5846 98.2923 54.2834 98.2923 53.9182V49.1846ZM100.769 49.1846H103.086C103.611 49.1846 104.055 49.2647 104.417 49.4249C104.782 49.5851 105.059 49.8221 105.248 50.1361C105.441 50.4469 105.537 50.8297 105.537 51.2847C105.537 51.605 105.471 51.8982 105.34 52.1641C105.212 52.4268 105.026 52.6511 104.782 52.8369C104.542 53.0195 104.254 53.1557 103.917 53.2454L103.658 53.3463H101.481L101.471 52.5918H103.115C103.448 52.5918 103.725 52.5341 103.946 52.4188C104.167 52.3003 104.334 52.1417 104.446 51.943C104.558 51.7444 104.614 51.525 104.614 51.2847C104.614 51.0156 104.561 50.7801 104.455 50.5782C104.35 50.3764 104.183 50.221 103.956 50.1121C103.731 50 103.441 49.9439 103.086 49.9439H101.697V56.1816H100.769V49.1846ZM104.859 56.1816L103.158 53.0099L104.124 53.0051L105.849 56.124V56.1816H104.859ZM109.513 53.4376H107.644V52.6831H109.513C109.875 52.6831 110.168 52.6254 110.393 52.5101C110.617 52.3948 110.78 52.2346 110.883 52.0295C110.989 51.8245 111.041 51.5906 111.041 51.3279C111.041 51.0876 110.989 50.8618 110.883 50.6503C110.78 50.4389 110.617 50.2691 110.393 50.1409C110.168 50.0096 109.875 49.9439 109.513 49.9439H107.86V56.1816H106.933V49.1846H109.513C110.042 49.1846 110.489 49.2759 110.854 49.4585C111.219 49.6411 111.496 49.8942 111.685 50.2178C111.874 50.5382 111.969 50.905 111.969 51.3183C111.969 51.7668 111.874 52.1497 111.685 52.4669C111.496 52.784 111.219 53.0259 110.854 53.1925C110.489 53.3559 110.042 53.4376 109.513 53.4376ZM118.627 52.4621V52.9042C118.627 53.4296 118.561 53.9006 118.43 54.317C118.299 54.7335 118.11 55.0876 117.863 55.3791C117.616 55.6706 117.32 55.8933 116.974 56.0471C116.631 56.2009 116.247 56.2778 115.821 56.2778C115.407 56.2778 115.028 56.2009 114.682 56.0471C114.339 55.8933 114.041 55.6706 113.788 55.3791C113.538 55.0876 113.344 54.7335 113.206 54.317C113.069 53.9006 113 53.4296 113 52.9042V52.4621C113 51.9366 113.067 51.4673 113.202 51.054C113.339 50.6375 113.533 50.2835 113.783 49.9919C114.033 49.6972 114.329 49.4729 114.672 49.3192C115.018 49.1654 115.398 49.0885 115.811 49.0885C116.237 49.0885 116.622 49.1654 116.964 49.3192C117.31 49.4729 117.607 49.6972 117.853 49.9919C118.103 50.2835 118.294 50.6375 118.425 51.054C118.56 51.4673 118.627 51.9366 118.627 52.4621ZM117.709 52.9042V52.4524C117.709 52.036 117.666 51.6675 117.58 51.3471C117.496 51.0268 117.373 50.7576 117.209 50.5398C117.046 50.3219 116.846 50.1569 116.609 50.0448C116.375 49.9327 116.109 49.8766 115.811 49.8766C115.523 49.8766 115.262 49.9327 115.028 50.0448C114.797 50.1569 114.598 50.3219 114.432 50.5398C114.268 50.7576 114.142 51.0268 114.052 51.3471C113.962 51.6675 113.918 52.036 113.918 52.4524V52.9042C113.918 53.3239 113.962 53.6955 114.052 54.0191C114.142 54.3395 114.27 54.6102 114.437 54.8312C114.606 55.0491 114.807 55.2141 115.037 55.3262C115.271 55.4384 115.532 55.4944 115.821 55.4944C116.122 55.4944 116.389 55.4384 116.623 55.3262C116.857 55.2141 117.054 55.0491 117.214 54.8312C117.378 54.6102 117.501 54.3395 117.584 54.0191C117.668 53.6955 117.709 53.3239 117.709 52.9042ZM123.844 54.4132C123.844 54.2498 123.818 54.1056 123.767 53.9806C123.719 53.8525 123.632 53.7372 123.507 53.6346C123.385 53.5321 123.216 53.4344 122.998 53.3415C122.783 53.2486 122.511 53.1541 122.181 53.058C121.835 52.9554 121.522 52.8417 121.244 52.7168C120.965 52.5886 120.726 52.4428 120.528 52.2794C120.329 52.116 120.177 51.9286 120.071 51.7172C119.965 51.5057 119.913 51.2638 119.913 50.9915C119.913 50.7192 119.969 50.4677 120.081 50.237C120.193 50.0064 120.353 49.8061 120.561 49.6363C120.773 49.4633 121.024 49.3288 121.316 49.2327C121.607 49.1365 121.933 49.0885 122.291 49.0885C122.817 49.0885 123.262 49.1894 123.627 49.3912C123.996 49.5899 124.276 49.851 124.468 50.1746C124.661 50.4949 124.757 50.8377 124.757 51.203H123.834C123.834 50.9403 123.778 50.708 123.666 50.5062C123.554 50.3011 123.384 50.1409 123.156 50.0256C122.929 49.907 122.641 49.8478 122.291 49.8478C121.961 49.8478 121.689 49.8974 121.474 49.9968C121.26 50.0961 121.1 50.2306 120.994 50.4004C120.891 50.5702 120.84 50.7641 120.84 50.9819C120.84 51.1293 120.87 51.2638 120.931 51.3856C120.995 51.5041 121.093 51.6147 121.225 51.7172C121.359 51.8197 121.529 51.9142 121.734 52.0007C121.942 52.0872 122.19 52.1705 122.479 52.2506C122.876 52.3627 123.219 52.4877 123.507 52.6254C123.796 52.7632 124.033 52.9186 124.218 53.0916C124.407 53.2614 124.547 53.4552 124.637 53.6731C124.729 53.8877 124.776 54.1312 124.776 54.4035C124.776 54.6887 124.718 54.9466 124.603 55.1773C124.488 55.4079 124.323 55.605 124.108 55.7684C123.893 55.9317 123.635 56.0583 123.334 56.148C123.036 56.2345 122.703 56.2778 122.335 56.2778C122.011 56.2778 121.692 56.2329 121.378 56.1432C121.068 56.0535 120.784 55.9189 120.528 55.7395C120.275 55.5601 120.071 55.339 119.917 55.0763C119.767 54.8104 119.691 54.5029 119.691 54.1537H120.614C120.614 54.3939 120.661 54.6006 120.754 54.7736C120.846 54.9434 120.973 55.0843 121.133 55.1965C121.297 55.3086 121.481 55.3919 121.686 55.4464C121.894 55.4976 122.11 55.5233 122.335 55.5233C122.658 55.5233 122.932 55.4784 123.156 55.3887C123.381 55.299 123.55 55.1708 123.666 55.0043C123.784 54.8377 123.844 54.6406 123.844 54.4132ZM130.502 55.4272V56.1816H126.797V55.4272H130.502ZM126.984 49.1846V56.1816H126.056V49.1846H126.984ZM130.012 52.1929V52.9474H126.797V52.1929H130.012ZM130.454 49.1846V49.9439H126.797V49.1846H130.454ZM138.734 55.4272V56.1816H135.028V55.4272H138.734ZM135.216 49.1846V56.1816H134.288V49.1846H135.216ZM138.243 52.1929V52.9474H135.028V52.1929H138.243ZM138.686 49.1846V49.9439H135.028V49.1846H138.686ZM144.205 53.9566H145.127C145.079 54.3987 144.953 54.7944 144.748 55.1436C144.543 55.4928 144.253 55.77 143.878 55.975C143.503 56.1768 143.035 56.2778 142.475 56.2778C142.065 56.2778 141.691 56.2009 141.355 56.0471C141.022 55.8933 140.735 55.6754 140.495 55.3935C140.255 55.1084 140.069 54.7672 139.937 54.3699C139.809 53.9694 139.745 53.5241 139.745 53.0339V52.3371C139.745 51.8469 139.809 51.4032 139.937 51.0059C140.069 50.6055 140.256 50.2627 140.5 49.9775C140.746 49.6924 141.043 49.4729 141.389 49.3192C141.735 49.1654 142.124 49.0885 142.556 49.0885C143.085 49.0885 143.532 49.1878 143.897 49.3864C144.262 49.5851 144.546 49.8606 144.748 50.213C144.953 50.5622 145.079 50.9675 145.127 51.4288H144.205C144.16 51.1021 144.077 50.8217 143.955 50.5878C143.833 50.3508 143.66 50.1682 143.436 50.04C143.212 49.9119 142.918 49.8478 142.556 49.8478C142.246 49.8478 141.972 49.907 141.735 50.0256C141.501 50.1441 141.304 50.3123 141.144 50.5302C140.987 50.748 140.868 51.0091 140.788 51.3135C140.708 51.6179 140.668 51.9559 140.668 52.3275V53.0339C140.668 53.3767 140.703 53.6987 140.774 53.9999C140.847 54.301 140.958 54.5653 141.105 54.7928C141.253 55.0203 141.44 55.1997 141.667 55.331C141.895 55.4592 142.164 55.5233 142.475 55.5233C142.869 55.5233 143.183 55.4608 143.417 55.3358C143.651 55.2109 143.827 55.0315 143.945 54.7976C144.067 54.5637 144.154 54.2834 144.205 53.9566ZM151.877 52.4621V52.9042C151.877 53.4296 151.811 53.9006 151.68 54.317C151.549 54.7335 151.36 55.0876 151.113 55.3791C150.866 55.6706 150.57 55.8933 150.224 56.0471C149.881 56.2009 149.497 56.2778 149.07 56.2778C148.657 56.2778 148.278 56.2009 147.931 56.0471C147.589 55.8933 147.291 55.6706 147.038 55.3791C146.788 55.0876 146.594 54.7335 146.456 54.317C146.318 53.9006 146.25 53.4296 146.25 52.9042V52.4621C146.25 51.9366 146.317 51.4673 146.451 51.054C146.589 50.6375 146.783 50.2835 147.033 49.9919C147.283 49.6972 147.579 49.4729 147.922 49.3192C148.268 49.1654 148.648 49.0885 149.061 49.0885C149.487 49.0885 149.871 49.1654 150.214 49.3192C150.56 49.4729 150.857 49.6972 151.103 49.9919C151.353 50.2835 151.544 50.6375 151.675 51.054C151.81 51.4673 151.877 51.9366 151.877 52.4621ZM150.959 52.9042V52.4524C150.959 52.036 150.916 51.6675 150.829 51.3471C150.746 51.0268 150.623 50.7576 150.459 50.5398C150.296 50.3219 150.096 50.1569 149.859 50.0448C149.625 49.9327 149.359 49.8766 149.061 49.8766C148.772 49.8766 148.511 49.9327 148.278 50.0448C148.047 50.1569 147.848 50.3219 147.682 50.5398C147.518 50.7576 147.392 51.0268 147.302 51.3471C147.212 51.6675 147.167 52.036 147.167 52.4524V52.9042C147.167 53.3239 147.212 53.6955 147.302 54.0191C147.392 54.3395 147.52 54.6102 147.686 54.8312C147.856 55.0491 148.056 55.2141 148.287 55.3262C148.521 55.4384 148.782 55.4944 149.07 55.4944C149.372 55.4944 149.639 55.4384 149.873 55.3262C150.107 55.2141 150.304 55.0491 150.464 54.8312C150.627 54.6102 150.751 54.3395 150.834 54.0191C150.917 53.6955 150.959 53.3239 150.959 52.9042ZM153.657 49.1846H154.556L156.848 54.8889L159.136 49.1846H160.039L157.194 56.1816H156.493L153.657 49.1846ZM153.364 49.1846H154.157L154.287 53.452V56.1816H153.364V49.1846ZM159.535 49.1846H160.328V56.1816H159.405V53.452L159.535 49.1846ZM162.348 49.1846H163.247L165.539 54.8889L167.827 49.1846H168.73L165.885 56.1816H165.184L162.348 49.1846ZM162.055 49.1846H162.848L162.978 53.452V56.1816H162.055V49.1846ZM168.226 49.1846H169.019V56.1816H168.096V53.452L168.226 49.1846ZM175.191 55.4272V56.1816H171.486V55.4272H175.191ZM171.674 49.1846V56.1816H170.746V49.1846H171.674ZM174.701 52.1929V52.9474H171.486V52.1929H174.701ZM175.143 49.1846V49.9439H171.486V49.1846H175.143ZM176.438 49.1846H178.755C179.28 49.1846 179.724 49.2647 180.086 49.4249C180.451 49.5851 180.728 49.8221 180.917 50.1361C181.109 50.4469 181.206 50.8297 181.206 51.2847C181.206 51.605 181.14 51.8982 181.008 52.1641C180.88 52.4268 180.695 52.6511 180.451 52.8369C180.211 53.0195 179.922 53.1557 179.586 53.2454L179.327 53.3463H177.15L177.14 52.5918H178.783C179.117 52.5918 179.394 52.5341 179.615 52.4188C179.836 52.3003 180.003 52.1417 180.115 51.943C180.227 51.7444 180.283 51.525 180.283 51.2847C180.283 51.0156 180.23 50.7801 180.124 50.5782C180.019 50.3764 179.852 50.221 179.624 50.1121C179.4 50 179.11 49.9439 178.755 49.9439H177.366V56.1816H176.438V49.1846ZM180.528 56.1816L178.827 53.0099L179.793 53.0051L181.518 56.124V56.1816H180.528ZM186.826 53.9566H187.748C187.7 54.3987 187.574 54.7944 187.369 55.1436C187.164 55.4928 186.874 55.77 186.499 55.975C186.124 56.1768 185.656 56.2778 185.096 56.2778C184.686 56.2778 184.312 56.2009 183.976 56.0471C183.643 55.8933 183.356 55.6754 183.116 55.3935C182.875 55.1084 182.69 54.7672 182.558 54.3699C182.43 53.9694 182.366 53.5241 182.366 53.0339V52.3371C182.366 51.8469 182.43 51.4032 182.558 51.0059C182.69 50.6055 182.877 50.2627 183.12 49.9775C183.367 49.6924 183.664 49.4729 184.01 49.3192C184.356 49.1654 184.745 49.0885 185.177 49.0885C185.706 49.0885 186.153 49.1878 186.518 49.3864C186.883 49.5851 187.167 49.8606 187.369 50.213C187.574 50.5622 187.7 50.9675 187.748 51.4288H186.826C186.781 51.1021 186.698 50.8217 186.576 50.5878C186.454 50.3508 186.281 50.1682 186.057 50.04C185.832 49.9119 185.539 49.8478 185.177 49.8478C184.867 49.8478 184.593 49.907 184.356 50.0256C184.122 50.1441 183.925 50.3123 183.764 50.5302C183.607 50.748 183.489 51.0091 183.409 51.3135C183.329 51.6179 183.289 51.9559 183.289 52.3275V53.0339C183.289 53.3767 183.324 53.6987 183.394 53.9999C183.468 54.301 183.579 54.5653 183.726 54.7928C183.873 55.0203 184.061 55.1997 184.288 55.331C184.516 55.4592 184.785 55.5233 185.096 55.5233C185.49 55.5233 185.804 55.4608 186.038 55.3358C186.271 55.2109 186.448 55.0315 186.566 54.7976C186.688 54.5637 186.774 54.2834 186.826 53.9566ZM193.556 55.4272V56.1816H189.851V55.4272H193.556ZM190.038 49.1846V56.1816H189.111V49.1846H190.038ZM193.066 52.1929V52.9474H189.851V52.1929H193.066ZM193.508 49.1846V49.9439H189.851V49.1846H193.508Z" fill="#9B9B9B"/>
<path d="M27.0741 26L7.93308 50L22.0811 51L32.9001 37C32.9001 37 33.4251 35.563 32.0681 33C30.5991 30.5331 28.9287 28.1918 27.0741 26Z" fill="#94010B"/>
<path d="M27.007 12C27.007 12 14.513 25.924 9.53002 33C8.64314 34.5062 8.34667 36.2878 8.69802 38C8.69802 38 3.15503 32.387 1.20803 28C0.408025 26.205 2.04003 23 2.04003 23L12.027 12H27.007Z" fill="#D9121F"/>
</svg>
