<svg version="1.2" xmlns="http://www.w3.org/2000/svg" viewBox="0 0 242 70" width="242" height="70">
	<title>logo3-svg</title>
	<style>
		.s0 { fill: #ffffff } 
		.s1 { fill: #ffffff } 
	</style>
	<g id="Layer">
		<g id="tight-bounds">
			<g id="Layer">
				<g id="Layer">
					<g id="Layer">
						<g id="Layer">
							<g id="Layer">
								<g id="textblocktransform">
									<g id="textblock">
										<g id="Layer">
											<g id="Layer">
												<g id="Layer">
													<g id="Layer">
														<path id="text-0" fill-rule="evenodd" class="s0" d="m62.9 55.5h-5.4v-39h5.4v17.5h10.1q2.4 0 4.3-0.8 1.9-0.9 3.1-2.6 1.1-1.7 1.1-4l0.1-10.1h5.3v10q0 3.8-2 6.7-1.9 2.8-5.2 4.2l5.1 11.6q0.5 0.9 1 1.3 0.5 0.5 1.5 0.5h2.8v4.7h-3.6q-2.5 0-4-1.1-1.6-1.1-2.5-3l-5.6-12.7q-0.7 0-1.3 0-0.6 0.1-1.3 0.1h-8.9zm54.2 0h-7.4q-4.7 0-8.3-1.8-3.6-1.7-5.7-5-2-3.2-2-7.5 0-4.2 1.7-7.6 1.8-3.3 4.8-5.3 3.1-2 7.2-2 4.4 0 7.3 1.9 3 1.9 4.4 5.1 1.5 3.3 1.5 7.2 0 0.6-0.1 1.3 0 0.7-0.1 1.2h-21.2q0.3 2.6 1.7 4.4 1.5 1.8 3.7 2.7 2.3 1 5 1h7.5zm-18-16.2h16.3q0-1-0.2-2.2-0.3-1.2-0.8-2.4-0.6-1.1-1.5-2-0.9-0.9-2.3-1.5-1.4-0.6-3.2-0.6-2 0-3.5 0.8-1.4 0.7-2.5 2-1 1.3-1.6 2.8-0.6 1.6-0.7 3.1zm49.8 16.2h-7.3q-4.7 0-8.3-1.8-3.7-1.8-5.7-5-2.1-3.2-2.1-7.5 0-4.2 1.8-7.6 1.7-3.4 4.8-5.3 3.1-2 7.1-2 4.4 0 7.4 1.9 2.9 1.9 4.4 5.1 1.4 3.3 1.4 7.2 0 0.6 0 1.3 0 0.7-0.2 1.2h-21.2q0.3 2.6 1.8 4.4 1.4 1.8 3.7 2.7 2.2 1 5 1h7.4zm-17.9-16.2h16.2q0-1-0.2-2.2-0.2-1.2-0.8-2.4-0.5-1.1-1.5-2-0.9-1-2.3-1.5-1.3-0.6-3.2-0.6-1.9 0-3.4 0.8-1.5 0.7-2.5 2-1.1 1.2-1.7 2.8-0.5 1.6-0.6 3.1zm33.1 16.2h-5.2v-17.2q0-3.3 1.5-6 1.6-2.7 4.4-4.3 2.9-1.7 6.9-1.7 1.9 0 3.9 0.6 1.9 0.5 3.6 1.7 1.7 1.3 2.7 3.4h0.1q1.1-2.1 2.7-3.4 1.7-1.2 3.7-1.7 1.9-0.6 3.9-0.6 4 0 6.9 1.7 2.8 1.6 4.3 4.3 1.5 2.7 1.5 6v17.2h-5.1v-17.2q0-2.1-1-3.8-1-1.7-2.7-2.8-1.7-1-3.9-1-2.1 0-3.9 1.1-1.8 1-2.8 2.7-1.1 1.7-1.1 3.8v17.2h-5.1v-17.2q0-2.1-1-3.8-1.1-1.7-2.8-2.7-1.8-1.1-4-1.1-2.1 0-3.8 1-1.7 1.1-2.7 2.8-1 1.7-1 3.8zm65.5 0h-6.7q-3.8 0-5.9-2.1-2.2-2.2-2.2-6v-15.9h-4.9v-4.4h4.9v-7.2h5.1v7.2h9.8v4.4h-9.8v15.6q0 1.8 1.1 2.9 1 1.1 2.8 1.1h5.8zm6.3-28.4h5.2v28.4h-5.2zm2.6-4.5q-1.4 0-2.4-1-1-1.1-1-2.5 0-1.4 1-2.4 1-1 2.4-1 1.4 0 2.5 1 1 1 1 2.4 0 1.4-1 2.5-1.1 1-2.5 1z"/>
													</g>
												</g>
											</g>
										</g>
									</g>
								</g>
							</g>
						</g>
						<g id="Layer">
							<g id="Layer">
								<g id="Layer">
									<g id="icon-0">
										<path id="Layer" class="s1" d="m48.1 22.1l-12.3 19.4v-23z"/>
										<path id="Layer" class="s1" d="m24.3 8l10.7 20.4-19.9-11.6z"/>
										<path id="Layer" class="s1" d="m35.4 28.3v-9.8l-4.3 1.3z"/>
										<path id="Layer" class="s1" d="m47.9 49.7l-23.1-1 20-11.5z"/>
										<path id="Layer" class="s1" d="m36.2 41.7l8.4-4.9-3.3-3z"/>
										<path id="Layer" class="s1" d="m23.7 63.1l-10.6-20.4 19.9 11.7z"/>
										<path id="Layer" class="s1" d="m24.8 49l8.4 4.9 1-4.3z"/>
										<path id="Layer" class="s1" d="m0 48.9l12.5-19.3-0.2 23z"/>
										<path id="Layer" class="s1" d="m12.8 42.9l-0.1 9.7 4.3-1.4z"/>
										<path id="Layer" class="s1" d="m0.6 21.4l22.9 1.1-20 11.3z"/>
										<path id="Layer" class="s1" d="m12.2 29.4l-8.5 4.8 3.3 3z"/>
										<path id="Layer" class="s1" d="m23.4 22.1l-8.4-4.9-1 4.4z"/>
									</g>
								</g>
							</g>
						</g>
					</g>
				</g>
			</g>
		</g>
	</g>
</svg>