<?xml version="1.0" encoding="UTF-8"?>
<!DOCTYPE svg PUBLIC "-//W3C//DTD SVG 1.1//EN" "http://www.w3.org/Graphics/SVG/1.1/DTD/svg11.dtd">
<svg xmlns="http://www.w3.org/2000/svg" version="1.1" width="512px" height="512px" style="shape-rendering:geometricPrecision; text-rendering:geometricPrecision; image-rendering:optimizeQuality; fill-rule:evenodd; clip-rule:evenodd" xmlns:xlink="http://www.w3.org/1999/xlink">
<g><path style="opacity:1" fill="#F92950" d="M 511.5,249.5 C 511.5,253.5 511.5,257.5 511.5,261.5C 498.928,275.575 485.762,289.242 472,302.5C 462.95,311.434 458.117,322.268 457.5,335C 460.12,355.505 462.786,376.005 465.5,396.5C 465.886,404.568 462.219,409.734 454.5,412C 435.481,415.225 416.481,418.559 397.5,422C 387.153,424.593 378.653,430.093 372,438.5C 362,457.167 352,475.833 342,494.5C 337.15,499.837 331.317,501.337 324.5,499C 307.377,490.939 290.377,482.605 273.5,474C 267.743,471.561 261.743,470.061 255.5,469.5C 249.257,470.061 243.257,471.561 237.5,474C 218.965,483.935 199.965,492.769 180.5,500.5C 174.258,500.088 169.758,497.088 167,491.5C 157.921,473.675 148.588,456.008 139,438.5C 132.347,430.093 123.847,424.593 113.5,422C 92.6722,418.641 72.0056,414.641 51.5,410C 47.1812,406.529 45.1812,402.029 45.5,396.5C 48.2135,376.005 50.8802,355.505 53.5,335C 53.4637,325.558 50.6303,317.058 45,309.5C 29.6012,293.604 14.4346,277.604 -0.5,261.5C -0.5,257.5 -0.5,253.5 -0.5,249.5C 12.0718,235.425 25.2384,221.758 39,208.5C 48.0497,199.566 52.8831,188.732 53.5,176C 50.8802,155.495 48.2135,134.995 45.5,114.5C 45.1144,106.432 48.7811,101.266 56.5,99C 75.5194,95.7746 94.5194,92.4412 113.5,89C 123.847,86.4067 132.347,80.9067 139,72.5C 149,53.8333 159,35.1667 169,16.5C 172.046,12.6437 176.046,10.6437 181,10.5C 200.243,18.3704 219.076,27.2037 237.5,37C 243.257,39.4391 249.257,40.9391 255.5,41.5C 261.743,40.9391 267.743,39.4391 273.5,37C 292.035,27.0646 311.035,18.2313 330.5,10.5C 336.742,10.9115 341.242,13.9115 344,19.5C 353.079,37.3248 362.412,54.9915 372,72.5C 378.653,80.9067 387.153,86.4067 397.5,89C 418.328,92.3592 438.994,96.3592 459.5,101C 463.819,104.471 465.819,108.971 465.5,114.5C 462.786,134.995 460.12,155.495 457.5,176C 457.536,185.442 460.37,193.942 466,201.5C 481.399,217.396 496.565,233.396 511.5,249.5 Z M 178.5,129.5 C 201.724,128.529 219.891,137.529 233,156.5C 245.39,181.326 242.557,204.159 224.5,225C 202.197,243.813 178.531,245.813 153.5,231C 131.081,213.164 124.581,190.664 134,163.5C 143.138,144.534 157.971,133.201 178.5,129.5 Z M 337.5,157.5 C 351.12,158.753 355.62,165.753 351,178.5C 293.5,236 236,293.5 178.5,351C 167.259,355.546 160.259,351.879 157.5,340C 157.934,337.366 158.767,334.866 160,332.5C 217.5,275 275,217.5 332.5,160C 334.315,159.243 335.981,158.41 337.5,157.5 Z M 315.5,270.5 C 345.033,267.676 365.866,279.676 378,306.5C 386.071,334.957 377.904,357.457 353.5,374C 322.986,387.914 297.819,381.414 278,354.5C 263.624,324.512 269.457,299.346 295.5,279C 301.889,275.3 308.556,272.466 315.5,270.5 Z"/></g>
<g><path style="opacity:1" fill="#F92950" d="M 180.5,156.5 C 204.158,156.989 214.992,168.989 213,192.5C 206.866,208.989 195.033,215.823 177.5,213C 160.446,206.519 153.946,194.353 158,176.5C 161.63,165.364 169.13,158.697 180.5,156.5 Z"/></g>
<g><path style="opacity:1" fill="#F92950" d="M 318.5,297.5 C 334.91,295.118 346.41,301.451 353,316.5C 357.01,333.981 350.844,346.148 334.5,353C 316.889,356.612 304.723,350.112 298,333.5C 295.319,315.842 302.152,303.842 318.5,297.5 Z"/></g>
</svg>
