<svg width="30" height="30" viewBox="0 0 30 30" fill="none" xmlns="http://www.w3.org/2000/svg">
<g clip-path="url(#clip0_182_59)">
<path d="M11.25 18.75L18.75 11.25" stroke="black" stroke-width="1.5" stroke-linecap="round" stroke-linejoin="round"/>
<path d="M11.875 12.5C12.2202 12.5 12.5 12.2202 12.5 11.875C12.5 11.5298 12.2202 11.25 11.875 11.25C11.5298 11.25 11.25 11.5298 11.25 11.875C11.25 12.2202 11.5298 12.5 11.875 12.5Z" fill="black" stroke="black" stroke-width="1.5" stroke-linecap="round" stroke-linejoin="round"/>
<path d="M18.125 18.75C18.4702 18.75 18.75 18.4702 18.75 18.125C18.75 17.7798 18.4702 17.5 18.125 17.5C17.7798 17.5 17.5 17.7798 17.5 18.125C17.5 18.4702 17.7798 18.75 18.125 18.75Z" fill="black" stroke="black" stroke-width="1.5" stroke-linecap="round" stroke-linejoin="round"/>
<path d="M6.25009 8.99984C6.25009 8.2705 6.53982 7.57103 7.05554 7.0553C7.57127 6.53958 8.27074 6.24984 9.00009 6.24984H10.2501C10.9762 6.24943 11.6727 5.96185 12.1876 5.44984L13.0626 4.57484C13.3181 4.31784 13.622 4.1139 13.9566 3.97473C14.2913 3.83556 14.6502 3.76392 15.0126 3.76392C15.375 3.76392 15.7339 3.83556 16.0685 3.97473C16.4032 4.1139 16.707 4.31784 16.9626 4.57484L17.8376 5.44984C18.3525 5.96185 19.049 6.24943 19.7751 6.24984H21.0251C21.7544 6.24984 22.4539 6.53958 22.9696 7.0553C23.4854 7.57103 23.7751 8.2705 23.7751 8.99984V10.2498C23.7755 10.976 24.0631 11.6725 24.5751 12.1873L25.4501 13.0623C25.7071 13.3179 25.911 13.6217 26.0502 13.9564C26.1894 14.291 26.261 14.6499 26.261 15.0123C26.261 15.3748 26.1894 15.7336 26.0502 16.0683C25.911 16.4029 25.7071 16.7068 25.4501 16.9623L24.5751 17.8373C24.0631 18.3522 23.7755 19.0487 23.7751 19.7748V21.0248C23.7751 21.7542 23.4854 22.4537 22.9696 22.9694C22.4539 23.4851 21.7544 23.7748 21.0251 23.7748H19.7751C19.049 23.7753 18.3525 24.0628 17.8376 24.5748L16.9626 25.4498C16.707 25.7068 16.4032 25.9108 16.0685 26.05C15.7339 26.1891 15.375 26.2608 15.0126 26.2608C14.6502 26.2608 14.2913 26.1891 13.9566 26.05C13.622 25.9108 13.3181 25.7068 13.0626 25.4498L12.1876 24.5748C11.6727 24.0628 10.9762 23.7753 10.2501 23.7748H9.00009C8.27074 23.7748 7.57127 23.4851 7.05554 22.9694C6.53982 22.4537 6.25009 21.7542 6.25009 21.0248V19.7748C6.24967 19.0487 5.96209 18.3522 5.45009 17.8373L4.57509 16.9623C4.31809 16.7068 4.11414 16.4029 3.97497 16.0683C3.8358 15.7336 3.76416 15.3748 3.76416 15.0123C3.76416 14.6499 3.8358 14.291 3.97497 13.9564C4.11414 13.6217 4.31809 13.3179 4.57509 13.0623L5.45009 12.1873C5.96209 11.6725 6.24967 10.976 6.25009 10.2498V8.99984Z" stroke="black" stroke-width="1.5" stroke-linecap="round" stroke-linejoin="round"/>
</g>
<defs>
<clipPath id="clip0_182_59">
<rect width="30" height="30" fill="white"/>
</clipPath>
</defs>
</svg>
