<svg width="30" height="30" viewBox="0 0 30 30" fill="none" xmlns="http://www.w3.org/2000/svg">
<g clip-path="url(#clip0_182_79)">
<path d="M11.25 13.75C11.25 14.7446 11.6451 15.6984 12.3483 16.4017C13.0516 17.1049 14.0054 17.5 15 17.5C15.9946 17.5 16.9484 17.1049 17.6517 16.4017C18.3549 15.6984 18.75 14.7446 18.75 13.75C18.75 12.7554 18.3549 11.8016 17.6517 11.0983C16.9484 10.3951 15.9946 10 15 10C14.0054 10 13.0516 10.3951 12.3483 11.0983C11.6451 11.8016 11.25 12.7554 11.25 13.75Z" stroke="black" stroke-width="1.5" stroke-linecap="round" stroke-linejoin="round"/>
<path d="M22.0713 20.8211L16.7675 26.1249C16.2987 26.5932 15.6632 26.8562 15.0006 26.8562C14.338 26.8562 13.7025 26.5932 13.2338 26.1249L7.92875 20.8211C6.53028 19.4226 5.57792 17.6408 5.19211 15.701C4.8063 13.7612 5.00437 11.7505 5.76126 9.92329C6.51815 8.09606 7.79988 6.5343 9.44436 5.43551C11.0888 4.33672 13.0222 3.75024 15 3.75024C16.9778 3.75024 18.9112 4.33672 20.5557 5.43551C22.2001 6.5343 23.4819 8.09606 24.2388 9.92329C24.9956 11.7505 25.1937 13.7612 24.8079 15.701C24.4221 17.6408 23.4697 19.4226 22.0713 20.8211Z" stroke="black" stroke-width="1.5" stroke-linecap="round" stroke-linejoin="round"/>
</g>
<defs>
<clipPath id="clip0_182_79">
<rect width="30" height="30" fill="white"/>
</clipPath>
</defs>
</svg>
