<svg width="29" height="28" viewBox="0 0 29 28" fill="none" xmlns="http://www.w3.org/2000/svg">
<g clip-path="url(#clip0_84_5404)">
<path d="M19.7497 11.6666C23.294 11.6666 26.1663 14.0175 26.1663 16.9166C26.1663 18.5465 25.2587 20.0025 23.833 20.965V23.3333L21.5417 21.959C20.9544 22.0976 20.3531 22.1673 19.7497 22.1666C16.2053 22.1666 13.333 19.8158 13.333 16.9166C13.333 14.0175 16.2053 11.6666 19.7497 11.6666Z" stroke="#2C3E50" stroke-linecap="round" stroke-linejoin="round"/>
<path d="M13.5628 18.3143C12.7578 18.543 11.8945 18.6666 10.9997 18.6666C9.96297 18.6689 8.93312 18.4985 7.95234 18.1626L5.16634 19.8333V16.5655C3.72317 15.3031 2.83301 13.5741 2.83301 11.6666C2.83301 7.80029 6.48934 4.66663 10.9997 4.66663C15.412 4.66663 19.0065 7.66496 19.1663 11.4158V11.6876" stroke="#2C3E50" stroke-linecap="round" stroke-linejoin="round"/>
<path d="M12.167 9.33337H12.1787" stroke="#2C3E50" stroke-linecap="round" stroke-linejoin="round"/>
<path d="M8.66699 9.33337H8.67866" stroke="#2C3E50" stroke-linecap="round" stroke-linejoin="round"/>
<path d="M18 16.3334H18.0117" stroke="#2C3E50" stroke-linecap="round" stroke-linejoin="round"/>
<path d="M21.5 16.3334H21.5117" stroke="#2C3E50" stroke-linecap="round" stroke-linejoin="round"/>
</g>
<defs>
<clipPath id="clip0_84_5404">
<rect width="28" height="28" fill="white" transform="translate(0.5)"/>
</clipPath>
</defs>
</svg>
