<svg width="31" height="30" viewBox="0 0 31 30" fill="none" xmlns="http://www.w3.org/2000/svg">
<mask id="mask0_90_8862" style="mask-type:luminance" maskUnits="userSpaceOnUse" x="1" y="1" width="28" height="28">
<path d="M28.3125 12.5H15.5V17.8125H22.875C22.1875 21.1875 19.3125 23.125 15.5 23.125C11 23.125 7.375 19.5 7.375 15C7.375 10.5 11 6.875 15.5 6.875C17.4375 6.875 19.1875 7.5625 20.5625 8.6875L24.5625 4.6875C22.125 2.5625 19 1.25 15.5 1.25C7.875 1.25 1.75 7.375 1.75 15C1.75 22.625 7.875 28.75 15.5 28.75C22.375 28.75 28.625 23.75 28.625 15C28.625 14.1875 28.5 13.3125 28.3125 12.5Z" fill="white"/>
</mask>
<g mask="url(#mask0_90_8862)">
<path d="M0.5 23.125V6.875L11.125 15L0.5 23.125Z" fill="#FBBC05"/>
</g>
<mask id="mask1_90_8862" style="mask-type:luminance" maskUnits="userSpaceOnUse" x="1" y="1" width="28" height="28">
<path d="M28.3125 12.5H15.5V17.8125H22.875C22.1875 21.1875 19.3125 23.125 15.5 23.125C11 23.125 7.375 19.5 7.375 15C7.375 10.5 11 6.875 15.5 6.875C17.4375 6.875 19.1875 7.5625 20.5625 8.6875L24.5625 4.6875C22.125 2.5625 19 1.25 15.5 1.25C7.875 1.25 1.75 7.375 1.75 15C1.75 22.625 7.875 28.75 15.5 28.75C22.375 28.75 28.625 23.75 28.625 15C28.625 14.1875 28.5 13.3125 28.3125 12.5Z" fill="white"/>
</mask>
<g mask="url(#mask1_90_8862)">
<path d="M0.5 6.875L11.125 15L15.5 11.1875L30.5 8.75V0H0.5V6.875Z" fill="#EA4335"/>
</g>
<mask id="mask2_90_8862" style="mask-type:luminance" maskUnits="userSpaceOnUse" x="1" y="1" width="28" height="28">
<path d="M28.3125 12.5H15.5V17.8125H22.875C22.1875 21.1875 19.3125 23.125 15.5 23.125C11 23.125 7.375 19.5 7.375 15C7.375 10.5 11 6.875 15.5 6.875C17.4375 6.875 19.1875 7.5625 20.5625 8.6875L24.5625 4.6875C22.125 2.5625 19 1.25 15.5 1.25C7.875 1.25 1.75 7.375 1.75 15C1.75 22.625 7.875 28.75 15.5 28.75C22.375 28.75 28.625 23.75 28.625 15C28.625 14.1875 28.5 13.3125 28.3125 12.5Z" fill="white"/>
</mask>
<g mask="url(#mask2_90_8862)">
<path d="M0.5 23.125L19.25 8.75L24.1875 9.375L30.5 0V30H0.5V23.125Z" fill="#34A853"/>
</g>
<mask id="mask3_90_8862" style="mask-type:luminance" maskUnits="userSpaceOnUse" x="1" y="1" width="28" height="28">
<path d="M28.3125 12.5H15.5V17.8125H22.875C22.1875 21.1875 19.3125 23.125 15.5 23.125C11 23.125 7.375 19.5 7.375 15C7.375 10.5 11 6.875 15.5 6.875C17.4375 6.875 19.1875 7.5625 20.5625 8.6875L24.5625 4.6875C22.125 2.5625 19 1.25 15.5 1.25C7.875 1.25 1.75 7.375 1.75 15C1.75 22.625 7.875 28.75 15.5 28.75C22.375 28.75 28.625 23.75 28.625 15C28.625 14.1875 28.5 13.3125 28.3125 12.5Z" fill="white"/>
</mask>
<g mask="url(#mask3_90_8862)">
<path d="M30.5 30L11.125 15L8.625 13.125L30.5 6.875V30Z" fill="#4285F4"/>
</g>
</svg>
