<svg width="14" height="15" viewBox="0 0 14 15" fill="none" xmlns="http://www.w3.org/2000/svg">
<path fill-rule="evenodd" clip-rule="evenodd" d="M0 1.5C0 1.23478 0.105357 0.98043 0.292893 0.792893C0.48043 0.605357 0.734784 0.5 1 0.5H13C13.2652 0.5 13.5196 0.605357 13.7071 0.792893C13.8946 0.98043 14 1.23478 14 1.5C14 1.76522 13.8946 2.01957 13.7071 2.20711C13.5196 2.39464 13.2652 2.5 13 2.5H1C0.734784 2.5 0.48043 2.39464 0.292893 2.20711C0.105357 2.01957 0 1.76522 0 1.5ZM0 5.5C0 5.23478 0.105357 4.98043 0.292893 4.79289C0.48043 4.60536 0.734784 4.5 1 4.5H13C13.2652 4.5 13.5196 4.60536 13.7071 4.79289C13.8946 4.98043 14 5.23478 14 5.5C14 5.76522 13.8946 6.01957 13.7071 6.20711C13.5196 6.39464 13.2652 6.5 13 6.5H1C0.734784 6.5 0.48043 6.39464 0.292893 6.20711C0.105357 6.01957 0 5.76522 0 5.5ZM0 9.5C0 9.23478 0.105357 8.98043 0.292893 8.79289C0.48043 8.60536 0.734784 8.5 1 8.5H13C13.2652 8.5 13.5196 8.60536 13.7071 8.79289C13.8946 8.98043 14 9.23478 14 9.5C14 9.76522 13.8946 10.0196 13.7071 10.2071C13.5196 10.3946 13.2652 10.5 13 10.5H1C0.734784 10.5 0.48043 10.3946 0.292893 10.2071C0.105357 10.0196 0 9.76522 0 9.5ZM0 13.5C0 13.2348 0.105357 12.9804 0.292893 12.7929C0.48043 12.6054 0.734784 12.5 1 12.5H13C13.2652 12.5 13.5196 12.6054 13.7071 12.7929C13.8946 12.9804 14 13.2348 14 13.5C14 13.7652 13.8946 14.0196 13.7071 14.2071C13.5196 14.3946 13.2652 14.5 13 14.5H1C0.734784 14.5 0.48043 14.3946 0.292893 14.2071C0.105357 14.0196 0 13.7652 0 13.5Z" fill="#B0BABF"/>
</svg>
