<svg width="29" height="28" viewBox="0 0 29 28" fill="none" xmlns="http://www.w3.org/2000/svg">
<g clip-path="url(#clip0_84_5398)">
<path d="M4 24.5L5.925 20.0666C4.45227 17.976 3.79311 15.4198 4.07122 12.8778C4.34933 10.3357 5.54558 7.98246 7.43549 6.25974C9.3254 4.53702 11.779 3.56321 14.3359 3.52108C16.8928 3.47895 19.3772 4.37138 21.3229 6.0309C23.2685 7.69042 24.5417 10.0029 24.9034 12.5345C25.2651 15.066 24.6905 17.6425 23.2875 19.7805C21.8844 21.9185 19.7493 23.471 17.283 24.1466C14.8166 24.8222 12.1884 24.5745 9.89167 23.45L4 24.5Z" stroke="#2C3E50" stroke-linecap="round" stroke-linejoin="round"/>
<path d="M11 11.6666C11 11.8213 11.0615 11.9697 11.1709 12.0791C11.2803 12.1885 11.4286 12.25 11.5833 12.25C11.738 12.25 11.8864 12.1885 11.9958 12.0791C12.1052 11.9697 12.1667 11.8213 12.1667 11.6666V10.5C12.1667 10.3452 12.1052 10.1969 11.9958 10.0875C11.8864 9.97808 11.738 9.91663 11.5833 9.91663C11.4286 9.91663 11.2803 9.97808 11.1709 10.0875C11.0615 10.1969 11 10.3452 11 10.5V11.6666ZM11 11.6666C11 13.2137 11.6146 14.6975 12.7085 15.7914C13.8025 16.8854 15.2862 17.5 16.8333 17.5M16.8333 17.5H18C18.1547 17.5 18.3031 17.4385 18.4125 17.3291C18.5219 17.2197 18.5833 17.0713 18.5833 16.9166C18.5833 16.7619 18.5219 16.6135 18.4125 16.5041C18.3031 16.3948 18.1547 16.3333 18 16.3333H16.8333C16.6786 16.3333 16.5302 16.3948 16.4209 16.5041C16.3115 16.6135 16.25 16.7619 16.25 16.9166C16.25 17.0713 16.3115 17.2197 16.4209 17.3291C16.5302 17.4385 16.6786 17.5 16.8333 17.5Z" stroke="#2C3E50" stroke-linecap="round" stroke-linejoin="round"/>
</g>
<defs>
<clipPath id="clip0_84_5398">
<rect width="28" height="28" fill="white" transform="translate(0.5)"/>
</clipPath>
</defs>
</svg>
